<?xml version="1.0" encoding="UTF-8" standalone="no"?>
<svg
   xmlns:dc="http://purl.org/dc/elements/1.1/"
   xmlns:cc="http://creativecommons.org/ns#"
   xmlns:rdf="http://www.w3.org/1999/02/22-rdf-syntax-ns#"
   xmlns:svg="http://www.w3.org/2000/svg"
   xmlns="http://www.w3.org/2000/svg"
   xmlns:sodipodi="http://sodipodi.sourceforge.net/DTD/sodipodi-0.dtd"
   xmlns:inkscape="http://www.inkscape.org/namespaces/inkscape"
   width="256px"
   height="243px"
   viewBox="0 0 256 243"
   version="1.1"
   preserveAspectRatio="xMidYMid"
   id="svg10"
   sodipodi:docname="facil-logo.svg"
   inkscape:version="1.0.1 (3bc2e813f5, 2020-09-07)"
   inkscape:export-filename="D:\Source\Repos\Facil\logo\logo.png"
   inkscape:export-xdpi="218.43457"
   inkscape:export-ydpi="218.43457">
  <metadata
     id="metadata16">
    <rdf:RDF>
      <cc:Work
         rdf:about="">
        <dc:format>image/svg+xml</dc:format>
        <dc:type
           rdf:resource="http://purl.org/dc/dcmitype/StillImage" />
      </cc:Work>
    </rdf:RDF>
  </metadata>
  <defs
     id="defs14" />
  <sodipodi:namedview
     pagecolor="#ffffff"
     bordercolor="#666666"
     borderopacity="1"
     objecttolerance="10"
     gridtolerance="10"
     guidetolerance="10"
     inkscape:pageopacity="0"
     inkscape:pageshadow="2"
     inkscape:window-width="3840"
     inkscape:window-height="2066"
     id="namedview12"
     showgrid="false"
     inkscape:zoom="2.9331837"
     inkscape:cx="153.91383"
     inkscape:cy="105.25998"
     inkscape:window-x="-11"
     inkscape:window-y="-11"
     inkscape:window-maximized="1"
     inkscape:current-layer="g8"
     inkscape:document-rotation="0" />
  <g
     id="g8">
    <path
       d="M 15.490325,8.981859 H 187.30529 l -42.95373,42.953739 -85.907491,5e-6 2e-6,85.907477 -42.953739,42.95374 z"
       fill="#378bba"
       id="path2" />
    <path
       d="M 240.50967,234.00119 237.44154,59.118104 194.4878,102.07184 v 85.90748 l -85.90748,1e-5 -42.953744,42.95374 z"
       fill="#30b9db"
       id="path6" />
    <path
       inkscape:connector-curvature="0"
       id="path3026"
       d="m 119.01055,166.97466 c -5.07731,-0.71422 -10.7499,-2.01262 -14.28216,-3.26905 -7.389597,-2.62849 -13.448392,-6.90554 -15.437919,-10.89799 -0.988286,-1.98324 -1.026234,-2.32057 -1.026234,-9.12257 0,-3.94991 0.158255,-7.06319 0.359031,-7.06319 0.197466,0 0.819644,0.78597 1.382615,1.74662 5.199601,8.87243 23.698927,14.76829 43.881927,13.98544 18.67655,-0.72442 33.48509,-6.34482 37.53074,-14.24434 0.5308,-1.03645 1.13254,-1.88446 1.33717,-1.88446 0.67435,0 0.90412,2.7408 0.72529,8.65169 -0.15997,5.28743 -0.27101,6.01317 -1.19546,7.81329 -3.22643,6.28261 -12.51559,11.14038 -26.27144,13.73864 -5.75591,1.0872 -20.96919,1.39475 -27.00356,0.54592 z m 2.182,-19.29194 c -12.25397,-1.23106 -23.607187,-5.41193 -28.958497,-10.66413 -3.53077,-3.46537 -3.750433,-4.16445 -3.895674,-12.39771 -0.08353,-4.73497 0.01233,-7.04191 0.292566,-7.04191 0.229236,0 0.861078,0.7038 1.404087,1.56399 3.446603,5.45976 12.431688,10.02965 24.175258,12.29569 23.41428,4.51805 50.81202,-1.49901 57.03529,-12.52603 0.66025,-1.16991 1.35099,-2.1271 1.53501,-2.1271 0.60407,0 0.88396,3.55355 0.70213,8.9147 -0.16035,4.72845 -0.28991,5.49836 -1.25824,7.47756 -4.99347,10.20629 -28.19047,16.79964 -51.03193,14.50494 z m 1.19018,-19.43747 c -15.7208,-1.38882 -29.099002,-7.24918 -32.841556,-14.38631 -1.000907,-1.90876 -1.074316,-2.41132 -1.205751,-8.25473 -0.171061,-7.605059 0.08384,-8.330851 1.92054,-5.46859 3.340534,5.20577 11.196827,9.20669 22.573317,11.49576 24.96201,5.02265 52.88564,-1.13792 58.90671,-12.996107 0.36007,-0.709138 0.80085,-1.289359 0.9795,-1.289359 0.50476,0 0.86918,10.704126 0.45173,13.269006 -1.8971,11.65619 -25.53185,19.86122 -50.78449,17.63033 z m 1.94138,-19.43477 C 107.96831,107.77056 93.051264,101.4014 89.596641,93.982789 84.863108,83.817763 99.156488,73.892732 121.93882,71.525043 c 6.41241,-0.666422 18.84223,-0.268429 24.47201,0.783574 6.61173,1.235493 11.00494,2.619289 15.93353,5.018819 7.22166,3.515941 10.81939,7.71212 10.81939,12.61912 0,11.700884 -22.82743,20.517784 -48.83964,18.863924 z"
       style="fill:#4aaee8;fill-opacity:1;stroke-width:0.396726" />
  </g>
</svg>
